# xmcd CD database file
#
# Track frame offsets:
#	150
#	42586
#	72633
#	88924
#	101549
#	112800
#	159635
#	206955
#
# Disc length: 3463 seconds
#
# Revision: 7
# Processed by: cddbd v1.5.2PL0 Copyright (c) Steve Scherf et al.
# Submitted via: CDex 1.51
#
DISCID=740d8508
DTITLE=Olivier Messiaen - Les offrandes oubliées - Prélude [1964] - La fauvette des jardins  (Håkon Austbø, piano)
DYEAR=1999
DGENRE=Musique Contemporaine
TTITLE0=Les offrandes oubliées
TTITLE1=Fantaisie Burlesque
TTITLE2=Pièce pour le tombeau de Paul Dukas
TTITLE3=Rondeau
TTITLE4=Prélude  [1964]  (premier enregistrement mondial)
TTITLE5=La fauvette des jardins
TTITLE6=La fauvette des jardins  (le lac vert et violet... )
TTITLE7=La fauvette des jardins  (ondulations de l'eau... )
EXTD=YEAR: 1999
EXTT0=
EXTT1=
EXTT2=
EXTT3=
EXTT4=
EXTT5=
EXTT6=
EXTT7=
PLAYORDER=
